<svg width="800" height="784" viewBox="0 0 800 784" fill="none" xmlns="http://www.w3.org/2000/svg">
<path fill-rule="evenodd" clip-rule="evenodd" d="M399.975 0C179.1 0 0 179.784 0 401.61C0 579.011 114.6 729.531 273.575 782.641C293.575 786.33 300.875 773.93 300.875 763.288C300.875 753.751 300.524 728.501 300.324 694.994C189.049 719.265 165.575 641.157 165.575 641.157C147.4 594.774 121.175 582.425 121.175 582.425C84.8501 557.501 123.925 558.003 123.925 558.003C164.05 560.839 185.175 599.392 185.175 599.392C220.875 660.759 278.8 643.039 301.6 632.748C305.225 606.796 315.575 589.102 327 579.062C238.175 568.922 144.8 534.486 144.8 380.603C144.8 336.755 160.375 300.913 185.975 272.827C181.85 262.662 168.125 221.851 189.875 166.558C189.875 166.558 223.475 155.765 299.875 207.72C331.8 198.81 366 194.367 400.025 194.191C434 194.367 468.225 198.81 500.175 207.72C576.525 155.765 610.05 166.558 610.05 166.558C631.875 221.851 618.15 262.662 614.025 272.827C639.675 300.913 655.15 336.755 655.15 380.603C655.15 534.862 561.625 568.82 472.525 578.76C486.875 591.159 499.675 615.656 499.675 653.129C499.675 706.816 499.175 750.111 499.175 763.288C499.175 774.031 506.375 786.53 526.675 782.59C685.5 729.38 800 578.961 800 401.61C800 179.784 620.9 0 399.975 0Z" fill="white"/>
</svg>
