<svg width="33" height="33" viewBox="0 0 33 33" fill="none" xmlns="http://www.w3.org/2000/svg">
<g clip-path="url(#clip0_21_2266)">
<path d="M30.5967 0H2.92298C1.59733 0 0.525391 1.04657 0.525391 2.3405V30.1284C0.525391 31.4223 1.59733 32.4752 2.92298 32.4752H30.5967C31.9224 32.4752 33.0006 31.4223 33.0006 30.1347V2.3405C33.0006 1.04657 31.9224 0 30.5967 0ZM10.1601 27.6737H5.33959V12.1719H10.1601V27.6737ZM7.74986 10.0597C6.20222 10.0597 4.95268 8.81018 4.95268 7.26887C4.95268 5.72757 6.20222 4.47803 7.74986 4.47803C9.29117 4.47803 10.5407 5.72757 10.5407 7.26887C10.5407 8.80384 9.29117 10.0597 7.74986 10.0597ZM28.1991 27.6737H23.3849V20.1385C23.3849 18.3434 23.3532 16.0283 20.8795 16.0283C18.3741 16.0283 17.9935 17.9882 17.9935 20.0116V27.6737H13.1857V12.1719H17.8032V14.2904H17.8667C18.5073 13.0726 20.0803 11.785 22.4208 11.785C27.2984 11.785 28.1991 14.9944 28.1991 19.168V27.6737Z" fill="white"/>
</g>
<defs>
<clipPath id="clip0_21_2266">
<rect width="32.4752" height="32.4752" fill="white" transform="translate(0.525391)"/>
</clipPath>
</defs>
</svg>
