<svg width="175" height="46" viewBox="0 0 175 46" fill="none" xmlns="http://www.w3.org/2000/svg">
<rect width="46" height="46" rx="23" fill="#FD853A"/>
<mask id="path-2-outside-1_102_951" maskUnits="userSpaceOnUse" x="9.5" y="12" width="26" height="24" fill="black">
<rect fill="white" x="9.5" y="12" width="26" height="24"/>
<path d="M34.435 13.31V35H30.88V20.99C30.88 20.43 30.91 19.825 30.97 19.175L24.415 31.49C24.105 32.08 23.63 32.375 22.99 32.375H22.42C21.78 32.375 21.305 32.08 20.995 31.49L14.365 19.13C14.395 19.46 14.42 19.785 14.44 20.105C14.46 20.425 14.47 20.72 14.47 20.99V35H10.915V13.31H13.96C14.14 13.31 14.295 13.315 14.425 13.325C14.555 13.335 14.67 13.36 14.77 13.4C14.88 13.44 14.975 13.505 15.055 13.595C15.145 13.685 15.23 13.805 15.31 13.955L21.805 26C21.975 26.32 22.13 26.65 22.27 26.99C22.42 27.33 22.565 27.68 22.705 28.04C22.845 27.67 22.99 27.315 23.14 26.975C23.29 26.625 23.45 26.29 23.62 25.97L30.025 13.955C30.105 13.805 30.19 13.685 30.28 13.595C30.37 13.505 30.465 13.44 30.565 13.4C30.675 13.36 30.795 13.335 30.925 13.325C31.055 13.315 31.21 13.31 31.39 13.31H34.435Z"/>
</mask>
<path d="M34.435 13.31V35H30.88V20.99C30.88 20.43 30.91 19.825 30.97 19.175L24.415 31.49C24.105 32.08 23.63 32.375 22.99 32.375H22.42C21.78 32.375 21.305 32.08 20.995 31.49L14.365 19.13C14.395 19.46 14.42 19.785 14.44 20.105C14.46 20.425 14.47 20.72 14.47 20.99V35H10.915V13.31H13.96C14.14 13.31 14.295 13.315 14.425 13.325C14.555 13.335 14.67 13.36 14.77 13.4C14.88 13.44 14.975 13.505 15.055 13.595C15.145 13.685 15.23 13.805 15.31 13.955L21.805 26C21.975 26.32 22.13 26.65 22.27 26.99C22.42 27.33 22.565 27.68 22.705 28.04C22.845 27.67 22.99 27.315 23.14 26.975C23.29 26.625 23.45 26.29 23.62 25.97L30.025 13.955C30.105 13.805 30.19 13.685 30.28 13.595C30.37 13.505 30.465 13.44 30.565 13.4C30.675 13.36 30.795 13.335 30.925 13.325C31.055 13.315 31.21 13.31 31.39 13.31H34.435Z" fill="white"/>
<path d="M34.435 13.31H35.435V12.31H34.435V13.31ZM34.435 35V36H35.435V35H34.435ZM30.88 35H29.88V36H30.88V35ZM30.97 19.175L31.9658 19.2669L30.0873 18.7051L30.97 19.175ZM24.415 31.49L23.5322 31.0201L23.5298 31.0249L24.415 31.49ZM20.995 31.49L21.8803 31.0249L21.8762 31.0173L20.995 31.49ZM14.365 19.13L15.2462 18.6573L13.3691 19.2205L14.365 19.13ZM14.44 20.105L13.4419 20.1674L13.4419 20.1674L14.44 20.105ZM14.47 35V36H15.47V35H14.47ZM10.915 35H9.915V36H10.915V35ZM10.915 13.31V12.31H9.915V13.31H10.915ZM14.425 13.325L14.3483 14.3221L14.3483 14.3221L14.425 13.325ZM14.77 13.4L14.3986 14.3285L14.4133 14.3344L14.4283 14.3398L14.77 13.4ZM15.055 13.595L14.3076 14.2594L14.3271 14.2813L14.3479 14.3021L15.055 13.595ZM15.31 13.955L14.4276 14.4256L14.4298 14.4296L15.31 13.955ZM21.805 26L22.6881 25.5308L22.6852 25.5254L21.805 26ZM22.27 26.99L21.3453 27.3707L21.3501 27.3823L21.3551 27.3936L22.27 26.99ZM22.705 28.04L21.773 28.4024L22.7178 30.8319L23.6403 28.3939L22.705 28.04ZM23.14 26.975L24.055 27.3787L24.0591 27.3689L23.14 26.975ZM23.62 25.97L22.7376 25.4996L22.7369 25.5008L23.62 25.97ZM30.025 13.955L29.1426 13.4844L29.1426 13.4846L30.025 13.955ZM30.565 13.4L30.2233 12.4602L30.2083 12.4656L30.1936 12.4715L30.565 13.4ZM30.925 13.325L31.0017 14.3221L31.0017 14.3221L30.925 13.325ZM34.435 13.31H33.435V35H34.435H35.435V13.31H34.435ZM34.435 35V34H30.88V35V36H34.435V35ZM30.88 35H31.88V20.99H30.88H29.88V35H30.88ZM30.88 20.99H31.88C31.88 20.4652 31.9081 19.8912 31.9658 19.2669L30.97 19.175L29.9742 19.0831C29.9119 19.7588 29.88 20.3948 29.88 20.99H30.88ZM30.97 19.175L30.0873 18.7051L23.5323 31.0201L24.415 31.49L25.2977 31.9599L31.8527 19.6449L30.97 19.175ZM24.415 31.49L23.5298 31.0249C23.4416 31.1926 23.3581 31.2673 23.2987 31.3042C23.2414 31.3398 23.1511 31.375 22.99 31.375V32.375V33.375C23.4689 33.375 23.9361 33.2627 24.3538 33.0033C24.7694 32.7452 25.0784 32.3774 25.3002 31.9551L24.415 31.49ZM22.99 32.375V31.375H22.42V32.375V33.375H22.99V32.375ZM22.42 32.375V31.375C22.2589 31.375 22.1686 31.3398 22.1113 31.3042C22.0519 31.2673 21.9684 31.1926 21.8802 31.0249L20.995 31.49L20.1098 31.9551C20.3316 32.3774 20.6406 32.7452 21.0562 33.0033C21.4739 33.2627 21.9411 33.375 22.42 33.375V32.375ZM20.995 31.49L21.8762 31.0173L15.2462 18.6573L14.365 19.13L13.4838 19.6027L20.1138 31.9627L20.995 31.49ZM14.365 19.13L13.3691 19.2205C13.3983 19.5415 13.4226 19.8571 13.4419 20.1674L14.44 20.105L15.4381 20.0426C15.4174 19.7129 15.3917 19.3785 15.3609 19.0395L14.365 19.13ZM14.44 20.105L13.4419 20.1674C13.4609 20.4703 13.47 20.7442 13.47 20.99H14.47H15.47C15.47 20.6958 15.4591 20.3797 15.4381 20.0426L14.44 20.105ZM14.47 20.99H13.47V35H14.47H15.47V20.99H14.47ZM14.47 35V34H10.915V35V36H14.47V35ZM10.915 35H11.915V13.31H10.915H9.915V35H10.915ZM10.915 13.31V14.31H13.96V13.31V12.31H10.915V13.31ZM13.96 13.31V14.31C14.1233 14.31 14.2513 14.3146 14.3483 14.3221L14.425 13.325L14.5017 12.3279C14.3387 12.3154 14.1567 12.31 13.96 12.31V13.31ZM14.425 13.325L14.3483 14.3221C14.3977 14.3259 14.4102 14.3331 14.3986 14.3285L14.77 13.4L15.1414 12.4715C14.9298 12.3869 14.7123 12.3441 14.5017 12.3279L14.425 13.325ZM14.77 13.4L14.4283 14.3398C14.4058 14.3316 14.382 14.3197 14.3591 14.3041C14.3363 14.2885 14.3192 14.2724 14.3076 14.2594L15.055 13.595L15.8024 12.9306C15.6154 12.7203 15.3823 12.5586 15.1117 12.4602L14.77 13.4ZM15.055 13.595L14.3479 14.3021C14.3474 14.3017 14.3554 14.3096 14.3702 14.3305C14.385 14.3513 14.4045 14.3822 14.4276 14.4256L15.31 13.955L16.1924 13.4844C16.0805 13.2746 15.9408 13.0666 15.7621 12.8879L15.055 13.595ZM15.31 13.955L14.4298 14.4296L20.9248 26.4746L21.805 26L22.6852 25.5254L16.1902 13.4804L15.31 13.955ZM21.805 26L20.9219 26.4692C21.0764 26.76 21.2175 27.0604 21.3453 27.3707L22.27 26.99L23.1947 26.6092C23.0425 26.2396 22.8736 25.88 22.6881 25.5308L21.805 26ZM22.27 26.99L21.3551 27.3936C21.4989 27.7195 21.6382 28.0558 21.773 28.4024L22.705 28.04L23.637 27.6776C23.4918 27.3042 23.3411 26.9405 23.1849 26.5864L22.27 26.99ZM22.705 28.04L23.6403 28.3939C23.7743 28.0396 23.9126 27.7012 24.0549 27.3786L23.14 26.975L22.2251 26.5714C22.0674 26.9288 21.9157 27.3004 21.7697 27.6861L22.705 28.04ZM23.14 26.975L24.0591 27.3689C24.1987 27.0432 24.3468 26.7334 24.5031 26.4392L23.62 25.97L22.7369 25.5008C22.5532 25.8466 22.3813 26.2068 22.2209 26.5811L23.14 26.975ZM23.62 25.97L24.5024 26.4404L30.9074 14.4254L30.025 13.955L29.1426 13.4846L22.7376 25.4996L23.62 25.97ZM30.025 13.955L30.9074 14.4256C30.9305 14.3822 30.95 14.3513 30.9648 14.3305C30.9796 14.3096 30.9876 14.3017 30.9871 14.3021L30.28 13.595L29.5729 12.8879C29.3942 13.0666 29.2545 13.2746 29.1426 13.4844L30.025 13.955ZM30.28 13.595L30.9871 14.3021C30.9985 14.2907 30.9828 14.3099 30.9364 14.3285L30.565 13.4L30.1936 12.4715C29.9472 12.5701 29.7415 12.7193 29.5729 12.8879L30.28 13.595ZM30.565 13.4L30.9067 14.3398C30.9223 14.3341 30.9521 14.3259 31.0017 14.3221L30.925 13.325L30.8483 12.3279C30.6379 12.3441 30.4277 12.3859 30.2233 12.4602L30.565 13.4ZM30.925 13.325L31.0017 14.3221C31.0987 14.3146 31.2267 14.31 31.39 14.31V13.31V12.31C31.1933 12.31 31.0113 12.3154 30.8483 12.3279L30.925 13.325ZM31.39 13.31V14.31H34.435V13.31V12.31H31.39V13.31Z" fill="white" mask="url(#path-2-outside-1_102_951)"/>
<g clip-path="url(#clip0_102_951)">
<mask id="path-4-outside-2_102_951" maskUnits="userSpaceOnUse" x="49" y="15" width="126" height="18" fill="black">
<rect fill="white" x="49" y="15" width="126" height="18"/>
<path d="M65.74 16.67V31H64.04V20.47C64.04 20.33 64.0433 20.18 64.05 20.02C64.0633 19.86 64.0767 19.6967 64.09 19.53L59.17 28.49C59.0167 28.79 58.7833 28.94 58.47 28.94H58.19C57.8767 28.94 57.6433 28.79 57.49 28.49L52.47 19.49C52.51 19.8433 52.53 20.17 52.53 20.47V31H50.83V16.67H52.26C52.4333 16.67 52.5667 16.6867 52.66 16.72C52.7533 16.7533 52.8433 16.8467 52.93 17L57.88 25.82C57.96 25.98 58.0367 26.1467 58.11 26.32C58.19 26.4933 58.2633 26.67 58.33 26.85C58.3967 26.67 58.4667 26.4933 58.54 26.32C58.6133 26.14 58.6933 25.97 58.78 25.81L63.64 17C63.72 16.8467 63.8067 16.7533 63.9 16.72C64 16.6867 64.1367 16.67 64.31 16.67H65.74ZM79.2142 25.68L76.9642 19.85C76.8976 19.6767 76.8276 19.4767 76.7542 19.25C76.6809 19.0167 76.6109 18.77 76.5442 18.51C76.4042 19.05 76.2609 19.5 76.1142 19.86L73.8642 25.68H79.2142ZM83.2542 31H81.7542C81.5809 31 81.4409 30.9567 81.3342 30.87C81.2276 30.7833 81.1476 30.6733 81.0942 30.54L79.7542 27.08H73.3242L71.9842 30.54C71.9442 30.66 71.8676 30.7667 71.7542 30.86C71.6409 30.9533 71.5009 31 71.3342 31H69.8342L75.5642 16.67H77.5242L83.2542 31ZM98.9494 16.67V31H97.0094V24.48H89.2794V31H87.3394V16.67H89.2794V23.06H97.0094V16.67H98.9494ZM119.723 16.67V31H118.023V20.47C118.023 20.33 118.026 20.18 118.033 20.02C118.046 19.86 118.059 19.6967 118.073 19.53L113.153 28.49C112.999 28.79 112.766 28.94 112.453 28.94H112.173C111.859 28.94 111.626 28.79 111.473 28.49L106.453 19.49C106.493 19.8433 106.513 20.17 106.513 20.47V31H104.813V16.67H106.243C106.416 16.67 106.549 16.6867 106.643 16.72C106.736 16.7533 106.826 16.8467 106.913 17L111.863 25.82C111.943 25.98 112.019 26.1467 112.093 26.32C112.173 26.4933 112.246 26.67 112.313 26.85C112.379 26.67 112.449 26.4933 112.523 26.32C112.596 26.14 112.676 25.97 112.763 25.81L117.623 17C117.703 16.8467 117.789 16.7533 117.883 16.72C117.983 16.6867 118.119 16.67 118.293 16.67H119.723ZM138.827 23.84C138.827 24.9133 138.657 25.9 138.317 26.8C137.977 27.6933 137.497 28.4633 136.877 29.11C136.257 29.7567 135.51 30.26 134.637 30.62C133.77 30.9733 132.81 31.15 131.757 31.15C130.704 31.15 129.744 30.9733 128.877 30.62C128.01 30.26 127.267 29.7567 126.647 29.11C126.027 28.4633 125.547 27.6933 125.207 26.8C124.867 25.9 124.697 24.9133 124.697 23.84C124.697 22.7667 124.867 21.7833 125.207 20.89C125.547 19.99 126.027 19.2167 126.647 18.57C127.267 17.9167 128.01 17.41 128.877 17.05C129.744 16.69 130.704 16.51 131.757 16.51C132.81 16.51 133.77 16.69 134.637 17.05C135.51 17.41 136.257 17.9167 136.877 18.57C137.497 19.2167 137.977 19.99 138.317 20.89C138.657 21.7833 138.827 22.7667 138.827 23.84ZM136.837 23.84C136.837 22.96 136.717 22.17 136.477 21.47C136.237 20.77 135.897 20.18 135.457 19.7C135.017 19.2133 134.484 18.84 133.857 18.58C133.23 18.32 132.53 18.19 131.757 18.19C130.99 18.19 130.294 18.32 129.667 18.58C129.04 18.84 128.504 19.2133 128.057 19.7C127.617 20.18 127.277 20.77 127.037 21.47C126.797 22.17 126.677 22.96 126.677 23.84C126.677 24.72 126.797 25.51 127.037 26.21C127.277 26.9033 127.617 27.4933 128.057 27.98C128.504 28.46 129.04 28.83 129.667 29.09C130.294 29.3433 130.99 29.47 131.757 29.47C132.53 29.47 133.23 29.3433 133.857 29.09C134.484 28.83 135.017 28.46 135.457 27.98C135.897 27.4933 136.237 26.9033 136.477 26.21C136.717 25.51 136.837 24.72 136.837 23.84ZM149.333 29.46C149.926 29.46 150.456 29.36 150.923 29.16C151.389 28.96 151.783 28.68 152.103 28.32C152.429 27.96 152.676 27.53 152.843 27.03C153.016 26.53 153.103 25.98 153.103 25.38V16.67H155.033V25.38C155.033 26.2067 154.899 26.9733 154.633 27.68C154.373 28.3867 153.996 29 153.503 29.52C153.016 30.0333 152.419 30.4367 151.713 30.73C151.006 31.0233 150.213 31.17 149.333 31.17C148.453 31.17 147.659 31.0233 146.953 30.73C146.246 30.4367 145.646 30.0333 145.153 29.52C144.659 29 144.279 28.3867 144.013 27.68C143.753 26.9733 143.623 26.2067 143.623 25.38V16.67H145.553V25.37C145.553 25.97 145.636 26.52 145.803 27.02C145.976 27.52 146.223 27.95 146.543 28.31C146.869 28.67 147.266 28.9533 147.733 29.16C148.206 29.36 148.739 29.46 149.333 29.46ZM173.13 23.84C173.13 24.9133 172.96 25.89 172.62 26.77C172.28 27.65 171.8 28.4033 171.18 29.03C170.56 29.6567 169.813 30.1433 168.94 30.49C168.073 30.83 167.113 31 166.06 31H160.71V16.67H166.06C167.113 16.67 168.073 16.8433 168.94 17.19C169.813 17.53 170.56 18.0167 171.18 18.65C171.8 19.2767 172.28 20.03 172.62 20.91C172.96 21.79 173.13 22.7667 173.13 23.84ZM171.14 23.84C171.14 22.96 171.02 22.1733 170.78 21.48C170.54 20.7867 170.2 20.2 169.76 19.72C169.32 19.24 168.786 18.8733 168.16 18.62C167.533 18.3667 166.833 18.24 166.06 18.24H162.65V29.43H166.06C166.833 29.43 167.533 29.3033 168.16 29.05C168.786 28.7967 169.32 28.4333 169.76 27.96C170.2 27.48 170.54 26.8933 170.78 26.2C171.02 25.5067 171.14 24.72 171.14 23.84Z"/>
</mask>
<path d="M65.74 16.67V31H64.04V20.47C64.04 20.33 64.0433 20.18 64.05 20.02C64.0633 19.86 64.0767 19.6967 64.09 19.53L59.17 28.49C59.0167 28.79 58.7833 28.94 58.47 28.94H58.19C57.8767 28.94 57.6433 28.79 57.49 28.49L52.47 19.49C52.51 19.8433 52.53 20.17 52.53 20.47V31H50.83V16.67H52.26C52.4333 16.67 52.5667 16.6867 52.66 16.72C52.7533 16.7533 52.8433 16.8467 52.93 17L57.88 25.82C57.96 25.98 58.0367 26.1467 58.11 26.32C58.19 26.4933 58.2633 26.67 58.33 26.85C58.3967 26.67 58.4667 26.4933 58.54 26.32C58.6133 26.14 58.6933 25.97 58.78 25.81L63.64 17C63.72 16.8467 63.8067 16.7533 63.9 16.72C64 16.6867 64.1367 16.67 64.31 16.67H65.74ZM79.2142 25.68L76.9642 19.85C76.8976 19.6767 76.8276 19.4767 76.7542 19.25C76.6809 19.0167 76.6109 18.77 76.5442 18.51C76.4042 19.05 76.2609 19.5 76.1142 19.86L73.8642 25.68H79.2142ZM83.2542 31H81.7542C81.5809 31 81.4409 30.9567 81.3342 30.87C81.2276 30.7833 81.1476 30.6733 81.0942 30.54L79.7542 27.08H73.3242L71.9842 30.54C71.9442 30.66 71.8676 30.7667 71.7542 30.86C71.6409 30.9533 71.5009 31 71.3342 31H69.8342L75.5642 16.67H77.5242L83.2542 31ZM98.9494 16.67V31H97.0094V24.48H89.2794V31H87.3394V16.67H89.2794V23.06H97.0094V16.67H98.9494ZM119.723 16.67V31H118.023V20.47C118.023 20.33 118.026 20.18 118.033 20.02C118.046 19.86 118.059 19.6967 118.073 19.53L113.153 28.49C112.999 28.79 112.766 28.94 112.453 28.94H112.173C111.859 28.94 111.626 28.79 111.473 28.49L106.453 19.49C106.493 19.8433 106.513 20.17 106.513 20.47V31H104.813V16.67H106.243C106.416 16.67 106.549 16.6867 106.643 16.72C106.736 16.7533 106.826 16.8467 106.913 17L111.863 25.82C111.943 25.98 112.019 26.1467 112.093 26.32C112.173 26.4933 112.246 26.67 112.313 26.85C112.379 26.67 112.449 26.4933 112.523 26.32C112.596 26.14 112.676 25.97 112.763 25.81L117.623 17C117.703 16.8467 117.789 16.7533 117.883 16.72C117.983 16.6867 118.119 16.67 118.293 16.67H119.723ZM138.827 23.84C138.827 24.9133 138.657 25.9 138.317 26.8C137.977 27.6933 137.497 28.4633 136.877 29.11C136.257 29.7567 135.51 30.26 134.637 30.62C133.77 30.9733 132.81 31.15 131.757 31.15C130.704 31.15 129.744 30.9733 128.877 30.62C128.01 30.26 127.267 29.7567 126.647 29.11C126.027 28.4633 125.547 27.6933 125.207 26.8C124.867 25.9 124.697 24.9133 124.697 23.84C124.697 22.7667 124.867 21.7833 125.207 20.89C125.547 19.99 126.027 19.2167 126.647 18.57C127.267 17.9167 128.01 17.41 128.877 17.05C129.744 16.69 130.704 16.51 131.757 16.51C132.81 16.51 133.77 16.69 134.637 17.05C135.51 17.41 136.257 17.9167 136.877 18.57C137.497 19.2167 137.977 19.99 138.317 20.89C138.657 21.7833 138.827 22.7667 138.827 23.84ZM136.837 23.84C136.837 22.96 136.717 22.17 136.477 21.47C136.237 20.77 135.897 20.18 135.457 19.7C135.017 19.2133 134.484 18.84 133.857 18.58C133.23 18.32 132.53 18.19 131.757 18.19C130.99 18.19 130.294 18.32 129.667 18.58C129.04 18.84 128.504 19.2133 128.057 19.7C127.617 20.18 127.277 20.77 127.037 21.47C126.797 22.17 126.677 22.96 126.677 23.84C126.677 24.72 126.797 25.51 127.037 26.21C127.277 26.9033 127.617 27.4933 128.057 27.98C128.504 28.46 129.04 28.83 129.667 29.09C130.294 29.3433 130.99 29.47 131.757 29.47C132.53 29.47 133.23 29.3433 133.857 29.09C134.484 28.83 135.017 28.46 135.457 27.98C135.897 27.4933 136.237 26.9033 136.477 26.21C136.717 25.51 136.837 24.72 136.837 23.84ZM149.333 29.46C149.926 29.46 150.456 29.36 150.923 29.16C151.389 28.96 151.783 28.68 152.103 28.32C152.429 27.96 152.676 27.53 152.843 27.03C153.016 26.53 153.103 25.98 153.103 25.38V16.67H155.033V25.38C155.033 26.2067 154.899 26.9733 154.633 27.68C154.373 28.3867 153.996 29 153.503 29.52C153.016 30.0333 152.419 30.4367 151.713 30.73C151.006 31.0233 150.213 31.17 149.333 31.17C148.453 31.17 147.659 31.0233 146.953 30.73C146.246 30.4367 145.646 30.0333 145.153 29.52C144.659 29 144.279 28.3867 144.013 27.68C143.753 26.9733 143.623 26.2067 143.623 25.38V16.67H145.553V25.37C145.553 25.97 145.636 26.52 145.803 27.02C145.976 27.52 146.223 27.95 146.543 28.31C146.869 28.67 147.266 28.9533 147.733 29.16C148.206 29.36 148.739 29.46 149.333 29.46ZM173.13 23.84C173.13 24.9133 172.96 25.89 172.62 26.77C172.28 27.65 171.8 28.4033 171.18 29.03C170.56 29.6567 169.813 30.1433 168.94 30.49C168.073 30.83 167.113 31 166.06 31H160.71V16.67H166.06C167.113 16.67 168.073 16.8433 168.94 17.19C169.813 17.53 170.56 18.0167 171.18 18.65C171.8 19.2767 172.28 20.03 172.62 20.91C172.96 21.79 173.13 22.7667 173.13 23.84ZM171.14 23.84C171.14 22.96 171.02 22.1733 170.78 21.48C170.54 20.7867 170.2 20.2 169.76 19.72C169.32 19.24 168.786 18.8733 168.16 18.62C167.533 18.3667 166.833 18.24 166.06 18.24H162.65V29.43H166.06C166.833 29.43 167.533 29.3033 168.16 29.05C168.786 28.7967 169.32 28.4333 169.76 27.96C170.2 27.48 170.54 26.8933 170.78 26.2C171.02 25.5067 171.14 24.72 171.14 23.84Z" fill="white"/>
<path d="M65.74 16.67H66.74V15.67H65.74V16.67ZM65.74 31V32H66.74V31H65.74ZM64.04 31H63.04V32H64.04V31ZM64.05 20.02L63.0535 19.937L63.0517 19.9576L63.0509 19.9784L64.05 20.02ZM64.09 19.53L65.0868 19.6097L63.2135 19.0487L64.09 19.53ZM59.17 28.49L58.2935 28.0087L58.2863 28.0217L58.2796 28.0349L59.17 28.49ZM57.49 28.49L58.3804 28.0349L58.3722 28.0187L58.3633 28.0029L57.49 28.49ZM52.47 19.49L53.3433 19.0029L51.4763 19.6025L52.47 19.49ZM52.53 31V32H53.53V31H52.53ZM50.83 31H49.83V32H50.83V31ZM50.83 16.67V15.67H49.83V16.67H50.83ZM52.93 17L53.8021 16.5106L53.8006 16.5079L52.93 17ZM57.88 25.82L58.7744 25.3728L58.7637 25.3514L58.7521 25.3306L57.88 25.82ZM58.11 26.32L57.189 26.7096L57.1953 26.7245L57.202 26.7391L58.11 26.32ZM58.33 26.85L57.3923 27.1973L58.33 29.7292L59.2677 27.1973L58.33 26.85ZM58.54 26.32L59.461 26.7097L59.4661 26.6973L58.54 26.32ZM58.78 25.81L57.9044 25.327L57.9007 25.3337L58.78 25.81ZM63.64 17L64.5156 17.483L64.5212 17.4729L64.5266 17.4626L63.64 17ZM63.9 16.72L63.5838 15.7713L63.5737 15.7747L63.5637 15.7783L63.9 16.72ZM65.74 16.67H64.74V31H65.74H66.74V16.67H65.74ZM65.74 31V30H64.04V31V32H65.74V31ZM64.04 31H65.04V20.47H64.04H63.04V31H64.04ZM64.04 20.47H65.04C65.04 20.3457 65.043 20.2097 65.0491 20.0616L64.05 20.02L63.0509 19.9784C63.0437 20.1503 63.04 20.3143 63.04 20.47H64.04ZM64.05 20.02L65.0465 20.103C65.06 19.9419 65.0734 19.7775 65.0868 19.6097L64.09 19.53L63.0932 19.4503C63.0799 19.6159 63.0667 19.7781 63.0535 19.937L64.05 20.02ZM64.09 19.53L63.2135 19.0487L58.2935 28.0087L59.17 28.49L60.0465 28.9713L64.9665 20.0113L64.09 19.53ZM59.17 28.49L58.2796 28.0349C58.2661 28.0613 58.2784 28.0254 58.3392 27.9863C58.368 27.9678 58.3981 27.955 58.4254 27.9475C58.4518 27.9403 58.4682 27.94 58.47 27.94V28.94V29.94C58.7928 29.94 59.1225 29.8604 59.4208 29.6687C59.7149 29.4796 59.9206 29.2187 60.0604 28.9451L59.17 28.49ZM58.47 28.94V27.94H58.19V28.94V29.94H58.47V28.94ZM58.19 28.94V27.94C58.1918 27.94 58.2082 27.9403 58.2346 27.9475C58.2619 27.955 58.292 27.9678 58.3208 27.9863C58.3816 28.0254 58.3939 28.0613 58.3804 28.0349L57.49 28.49L56.5996 28.9451C56.7394 29.2187 56.9451 29.4796 57.2392 29.6687C57.5375 29.8604 57.8672 29.94 58.19 29.94V28.94ZM57.49 28.49L58.3633 28.0029L53.3433 19.0029L52.47 19.49L51.5967 19.9771L56.6167 28.9771L57.49 28.49ZM52.47 19.49L51.4763 19.6025C51.5129 19.9251 51.53 20.2137 51.53 20.47H52.53H53.53C53.53 20.1263 53.5071 19.7616 53.4637 19.3775L52.47 19.49ZM52.53 20.47H51.53V31H52.53H53.53V20.47H52.53ZM52.53 31V30H50.83V31V32H52.53V31ZM50.83 31H51.83V16.67H50.83H49.83V31H50.83ZM50.83 16.67V17.67H52.26V16.67V15.67H50.83V16.67ZM52.26 16.67V17.67C52.3164 17.67 52.3502 17.6728 52.366 17.6748C52.3733 17.6757 52.3732 17.676 52.3671 17.6746C52.3612 17.6733 52.3459 17.6697 52.3237 17.6617L52.66 16.72L52.9963 15.7783C52.7432 15.6878 52.4755 15.67 52.26 15.67V16.67ZM52.66 16.72L52.3237 17.6617C52.1875 17.6131 52.108 17.5406 52.0777 17.5091C52.0474 17.4778 52.0439 17.4645 52.0594 17.4921L52.93 17L53.8006 16.5079C53.6784 16.2918 53.4356 15.9351 52.9963 15.7783L52.66 16.72ZM52.93 17L52.0579 17.4894L57.008 26.3094L57.88 25.82L58.7521 25.3306L53.8021 16.5106L52.93 17ZM57.88 25.82L56.9856 26.2672C57.0556 26.4074 57.1235 26.5548 57.189 26.7096L58.11 26.32L59.031 25.9304C58.9498 25.7386 58.8644 25.5526 58.7744 25.3728L57.88 25.82ZM58.11 26.32L57.202 26.7391C57.2711 26.8887 57.3345 27.0415 57.3923 27.1973L58.33 26.85L59.2677 26.5027C59.1921 26.2985 59.1089 26.0979 59.018 25.9009L58.11 26.32ZM58.33 26.85L59.2677 27.1973C59.3292 27.0313 59.3937 26.8687 59.461 26.7096L58.54 26.32L57.619 25.9304C57.5397 26.1179 57.4641 26.3087 57.3923 26.5027L58.33 26.85ZM58.54 26.32L59.4661 26.6973C59.5266 26.5489 59.5912 26.4121 59.6593 26.2863L58.78 25.81L57.9007 25.3337C57.7955 25.5279 57.7001 25.7311 57.6139 25.9427L58.54 26.32ZM58.78 25.81L59.6556 26.293L64.5156 17.483L63.64 17L62.7644 16.517L57.9044 25.327L58.78 25.81ZM63.64 17L64.5266 17.4626C64.539 17.4389 64.5325 17.4581 64.4978 17.4955C64.4621 17.5339 64.3778 17.6112 64.2363 17.6617L63.9 16.72L63.5637 15.7783C63.1098 15.9404 62.8704 16.3132 62.7534 16.5374L63.64 17ZM63.9 16.72L64.2162 17.6687C64.187 17.6784 64.1777 17.6777 64.1986 17.6751C64.218 17.6728 64.254 17.67 64.31 17.67V16.67V15.67C64.0891 15.67 63.8302 15.6892 63.5838 15.7713L63.9 16.72ZM64.31 16.67V17.67H65.74V16.67V15.67H64.31V16.67ZM79.2142 25.68V26.68H80.672L80.1472 25.3199L79.2142 25.68ZM76.9642 19.85L76.0309 20.209L76.0313 20.2101L76.9642 19.85ZM76.7542 19.25L75.8002 19.5498L75.8028 19.5578L76.7542 19.25ZM76.5442 18.51L77.5129 18.2616L75.5762 18.259L76.5442 18.51ZM76.1142 19.86L75.1881 19.4827L75.1847 19.491L75.1815 19.4994L76.1142 19.86ZM73.8642 25.68L72.9315 25.3194L72.4055 26.68H73.8642V25.68ZM83.2542 31V32H84.7311L84.1827 30.6287L83.2542 31ZM81.3342 30.87L80.7036 31.6461L80.7036 31.6461L81.3342 30.87ZM81.0942 30.54L80.1617 30.9012L80.1657 30.9114L81.0942 30.54ZM79.7542 27.08L80.6867 26.7189L80.4393 26.08H79.7542V27.08ZM73.3242 27.08V26.08H72.6391L72.3917 26.7189L73.3242 27.08ZM71.9842 30.54L71.0517 30.1789L71.0431 30.2011L71.0355 30.2238L71.9842 30.54ZM71.7542 30.86L72.3899 31.6319L72.3899 31.6319L71.7542 30.86ZM69.8342 31L68.9057 30.6287L68.3574 32H69.8342V31ZM75.5642 16.67V15.67H74.8871L74.6357 16.2987L75.5642 16.67ZM77.5242 16.67L78.4527 16.2987L78.2013 15.67H77.5242V16.67ZM79.2142 25.68L80.1472 25.3199L77.8972 19.4899L76.9642 19.85L76.0313 20.2101L78.2813 26.0401L79.2142 25.68ZM76.9642 19.85L77.8976 19.491C77.8389 19.3385 77.7749 19.1562 77.7057 18.9422L76.7542 19.25L75.8028 19.5578C75.8802 19.7972 75.9562 20.0148 76.0309 20.209L76.9642 19.85ZM76.7542 19.25L77.7082 18.9502C77.6407 18.7354 77.5755 18.506 77.5129 18.2616L76.5442 18.51L75.5756 18.7584C75.6462 19.034 75.7211 19.2979 75.8002 19.5498L76.7542 19.25ZM76.5442 18.51L75.5762 18.259C75.443 18.7728 75.3126 19.1773 75.1881 19.4827L76.1142 19.86L77.0403 20.2373C77.2092 19.8227 77.3654 19.3272 77.5122 18.761L76.5442 18.51ZM76.1142 19.86L75.1815 19.4994L72.9315 25.3194L73.8642 25.68L74.7969 26.0406L77.0469 20.2206L76.1142 19.86ZM73.8642 25.68V26.68H79.2142V25.68V24.68H73.8642V25.68ZM83.2542 31V30H81.7542V31V32H83.2542V31ZM81.7542 31V30C81.75 30 81.7735 29.9994 81.8149 30.0122C81.8588 30.0258 81.9125 30.0514 81.9648 30.0939L81.3342 30.87L80.7036 31.6461C81.0309 31.9121 81.4125 32 81.7542 32V31ZM81.3342 30.87L81.9648 30.0939C81.978 30.1046 81.9914 30.1185 82.003 30.1343C82.0143 30.15 82.0203 30.1626 82.0227 30.1686L81.0942 30.54L80.1657 30.9114C80.2794 31.1954 80.4588 31.4472 80.7036 31.6461L81.3342 30.87ZM81.0942 30.54L82.0267 30.1789L80.6867 26.7189L79.7542 27.08L78.8217 27.4411L80.1617 30.9011L81.0942 30.54ZM79.7542 27.08V26.08H73.3242V27.08V28.08H79.7542V27.08ZM73.3242 27.08L72.3917 26.7189L71.0517 30.1789L71.9842 30.54L72.9167 30.9011L74.2567 27.4411L73.3242 27.08ZM71.9842 30.54L71.0355 30.2238C71.0486 30.1846 71.0666 30.1516 71.0847 30.1264C71.1023 30.1019 71.1162 30.0899 71.1185 30.0881L71.7542 30.86L72.3899 31.6319C72.6246 31.4387 72.8244 31.1816 72.9329 30.8562L71.9842 30.54ZM71.7542 30.86L71.1185 30.0881C71.1571 30.0563 71.2022 30.0316 71.248 30.0163C71.2922 30.0016 71.3238 30 71.3342 30V31V32C71.6996 32 72.0735 31.8925 72.3899 31.6319L71.7542 30.86ZM71.3342 31V30H69.8342V31V32H71.3342V31ZM69.8342 31L70.7627 31.3713L76.4927 17.0413L75.5642 16.67L74.6357 16.2987L68.9057 30.6287L69.8342 31ZM75.5642 16.67V17.67H77.5242V16.67V15.67H75.5642V16.67ZM77.5242 16.67L76.5957 17.0413L82.3257 31.3713L83.2542 31L84.1827 30.6287L78.4527 16.2987L77.5242 16.67ZM98.9494 16.67H99.9494V15.67H98.9494V16.67ZM98.9494 31V32H99.9494V31H98.9494ZM97.0094 31H96.0094V32H97.0094V31ZM97.0094 24.48H98.0094V23.48H97.0094V24.48ZM89.2794 24.48V23.48H88.2794V24.48H89.2794ZM89.2794 31V32H90.2794V31H89.2794ZM87.3394 31H86.3394V32H87.3394V31ZM87.3394 16.67V15.67H86.3394V16.67H87.3394ZM89.2794 16.67H90.2794V15.67H89.2794V16.67ZM89.2794 23.06H88.2794V24.06H89.2794V23.06ZM97.0094 23.06V24.06H98.0094V23.06H97.0094ZM97.0094 16.67V15.67H96.0094V16.67H97.0094ZM98.9494 16.67H97.9494V31H98.9494H99.9494V16.67H98.9494ZM98.9494 31V30H97.0094V31V32H98.9494V31ZM97.0094 31H98.0094V24.48H97.0094H96.0094V31H97.0094ZM97.0094 24.48V23.48H89.2794V24.48V25.48H97.0094V24.48ZM89.2794 24.48H88.2794V31H89.2794H90.2794V24.48H89.2794ZM89.2794 31V30H87.3394V31V32H89.2794V31ZM87.3394 31H88.3394V16.67H87.3394H86.3394V31H87.3394ZM87.3394 16.67V17.67H89.2794V16.67V15.67H87.3394V16.67ZM89.2794 16.67H88.2794V23.06H89.2794H90.2794V16.67H89.2794ZM89.2794 23.06V24.06H97.0094V23.06V22.06H89.2794V23.06ZM97.0094 23.06H98.0094V16.67H97.0094H96.0094V23.06H97.0094ZM97.0094 16.67V17.67H98.9494V16.67V15.67H97.0094V16.67ZM119.723 16.67H120.723V15.67H119.723V16.67ZM119.723 31V32H120.723V31H119.723ZM118.023 31H117.023V32H118.023V31ZM118.033 20.02L117.036 19.937L117.035 19.9576L117.034 19.9784L118.033 20.02ZM118.073 19.53L119.07 19.6097L117.196 19.0487L118.073 19.53ZM113.153 28.49L112.276 28.0087L112.269 28.0217L112.262 28.0349L113.153 28.49ZM111.473 28.49L112.363 28.0349L112.355 28.0187L112.346 28.0029L111.473 28.49ZM106.453 19.49L107.326 19.0029L105.459 19.6025L106.453 19.49ZM106.513 31V32H107.513V31H106.513ZM104.813 31H103.813V32H104.813V31ZM104.813 16.67V15.67H103.813V16.67H104.813ZM106.913 17L107.785 16.5106L107.783 16.5079L106.913 17ZM111.863 25.82L112.757 25.3728L112.747 25.3514L112.735 25.3306L111.863 25.82ZM112.093 26.32L111.172 26.7096L111.178 26.7245L111.185 26.7391L112.093 26.32ZM112.313 26.85L111.375 27.1973L112.313 29.7292L113.251 27.1973L112.313 26.85ZM112.523 26.32L113.444 26.7097L113.449 26.6973L112.523 26.32ZM112.763 25.81L111.887 25.327L111.884 25.3337L112.763 25.81ZM117.623 17L118.498 17.483L118.504 17.4729L118.509 17.4626L117.623 17ZM117.883 16.72L117.567 15.7713L117.556 15.7747L117.546 15.7783L117.883 16.72ZM119.723 16.67H118.723V31H119.723H120.723V16.67H119.723ZM119.723 31V30H118.023V31V32H119.723V31ZM118.023 31H119.023V20.47H118.023H117.023V31H118.023ZM118.023 20.47H119.023C119.023 20.3457 119.026 20.2097 119.032 20.0616L118.033 20.02L117.034 19.9784C117.027 20.1503 117.023 20.3143 117.023 20.47H118.023ZM118.033 20.02L119.029 20.103C119.043 19.9419 119.056 19.7775 119.07 19.6097L118.073 19.53L117.076 19.4503C117.063 19.6159 117.05 19.7781 117.036 19.937L118.033 20.02ZM118.073 19.53L117.196 19.0487L112.276 28.0087L113.153 28.49L114.029 28.9713L118.949 20.0113L118.073 19.53ZM113.153 28.49L112.262 28.0349C112.249 28.0613 112.261 28.0254 112.322 27.9863C112.351 27.9678 112.381 27.955 112.408 27.9475C112.435 27.9403 112.451 27.94 112.453 27.94V28.94V29.94C112.776 29.94 113.105 29.8604 113.404 29.6687C113.698 29.4796 113.903 29.2187 114.043 28.9451L113.153 28.49ZM112.453 28.94V27.94H112.173V28.94V29.94H112.453V28.94ZM112.173 28.94V27.94C112.175 27.94 112.191 27.9403 112.217 27.9475C112.245 27.955 112.275 27.9678 112.304 27.9863C112.364 28.0254 112.377 28.0613 112.363 28.0349L111.473 28.49L110.582 28.9451C110.722 29.2187 110.928 29.4796 111.222 29.6687C111.52 29.8604 111.85 29.94 112.173 29.94V28.94ZM111.473 28.49L112.346 28.0029L107.326 19.0029L106.453 19.49L105.579 19.9771L110.599 28.9771L111.473 28.49ZM106.453 19.49L105.459 19.6025C105.496 19.9251 105.513 20.2137 105.513 20.47H106.513H107.513C107.513 20.1263 107.49 19.7616 107.446 19.3775L106.453 19.49ZM106.513 20.47H105.513V31H106.513H107.513V20.47H106.513ZM106.513 31V30H104.813V31V32H106.513V31ZM104.813 31H105.813V16.67H104.813H103.813V31H104.813ZM104.813 16.67V17.67H106.243V16.67V15.67H104.813V16.67ZM106.243 16.67V17.67C106.299 17.67 106.333 17.6728 106.349 17.6748C106.356 17.6757 106.356 17.676 106.35 17.6746C106.344 17.6733 106.329 17.6697 106.306 17.6617L106.643 16.72L106.979 15.7783C106.726 15.6878 106.458 15.67 106.243 15.67V16.67ZM106.643 16.72L106.306 17.6617C106.17 17.6131 106.091 17.5406 106.06 17.5091C106.03 17.4778 106.027 17.4645 106.042 17.4921L106.913 17L107.783 16.5079C107.661 16.2918 107.418 15.9351 106.979 15.7783L106.643 16.72ZM106.913 17L106.041 17.4894L110.991 26.3094L111.863 25.82L112.735 25.3306L107.785 16.5106L106.913 17ZM111.863 25.82L110.968 26.2672C111.038 26.4074 111.106 26.5548 111.172 26.7096L112.093 26.32L113.014 25.9304C112.933 25.7386 112.847 25.5526 112.757 25.3728L111.863 25.82ZM112.093 26.32L111.185 26.7391C111.254 26.8887 111.317 27.0415 111.375 27.1973L112.313 26.85L113.251 26.5027C113.175 26.2985 113.092 26.0979 113.001 25.9009L112.093 26.32ZM112.313 26.85L113.251 27.1973C113.312 27.0313 113.376 26.8687 113.444 26.7096L112.523 26.32L111.602 25.9304C111.522 26.1179 111.447 26.3087 111.375 26.5027L112.313 26.85ZM112.523 26.32L113.449 26.6973C113.509 26.5489 113.574 26.4121 113.642 26.2863L112.763 25.81L111.884 25.3337C111.778 25.5279 111.683 25.7311 111.597 25.9427L112.523 26.32ZM112.763 25.81L113.638 26.293L118.498 17.483L117.623 17L116.747 16.517L111.887 25.327L112.763 25.81ZM117.623 17L118.509 17.4626C118.522 17.4389 118.515 17.4581 118.481 17.4955C118.445 17.5339 118.361 17.6112 118.219 17.6617L117.883 16.72L117.546 15.7783C117.093 15.9404 116.853 16.3132 116.736 16.5374L117.623 17ZM117.883 16.72L118.199 17.6687C118.17 17.6784 118.16 17.6777 118.181 17.6751C118.201 17.6728 118.237 17.67 118.293 17.67V16.67V15.67C118.072 15.67 117.813 15.6892 117.567 15.7713L117.883 16.72ZM118.293 16.67V17.67H119.723V16.67V15.67H118.293V16.67ZM138.317 26.8L139.252 27.1557L139.253 27.1534L138.317 26.8ZM136.877 29.11L136.155 28.4179L136.155 28.4179L136.877 29.11ZM134.637 30.62L135.015 31.546L135.018 31.5445L134.637 30.62ZM128.877 30.62L128.493 31.5435L128.5 31.546L128.877 30.62ZM126.647 29.11L125.925 29.8021L125.925 29.8021L126.647 29.11ZM125.207 26.8L124.272 27.1534L124.272 27.1557L125.207 26.8ZM125.207 20.89L126.142 21.2457L126.143 21.2434L125.207 20.89ZM126.647 18.57L127.369 19.2621L127.372 19.2584L126.647 18.57ZM134.637 17.05L134.253 17.9735L134.256 17.9745L134.637 17.05ZM136.877 18.57L136.152 19.2584L136.155 19.2621L136.877 18.57ZM138.317 20.89L137.382 21.2434L137.382 21.2457L138.317 20.89ZM136.477 21.47L137.423 21.1457L136.477 21.47ZM135.457 19.7L134.715 20.3707L134.72 20.3757L135.457 19.7ZM133.857 18.58L134.24 17.6563L134.24 17.6563L133.857 18.58ZM129.667 18.58L129.284 17.6563L129.284 17.6563L129.667 18.58ZM128.057 19.7L127.32 19.0238L127.32 19.0243L128.057 19.7ZM127.037 21.47L126.091 21.1457L126.091 21.1457L127.037 21.47ZM127.037 26.21L126.091 26.5343L126.092 26.5371L127.037 26.21ZM128.057 27.98L127.315 28.6506L127.32 28.656L127.325 28.6612L128.057 27.98ZM129.667 29.09L129.284 30.0137L129.292 30.0171L129.667 29.09ZM133.857 29.09L134.232 30.0171L134.24 30.0137L133.857 29.09ZM135.457 27.98L136.194 28.6557L136.199 28.6506L135.457 27.98ZM136.477 26.21L137.422 26.5371L137.423 26.5343L136.477 26.21ZM138.827 23.84H137.827C137.827 24.8065 137.674 25.6718 137.382 26.4466L138.317 26.8L139.253 27.1534C139.64 26.1282 139.827 25.0202 139.827 23.84H138.827ZM138.317 26.8L137.382 26.4443C137.087 27.2209 136.676 27.8744 136.155 28.4179L136.877 29.11L137.599 29.8021C138.318 29.0523 138.867 28.1658 139.252 27.1557L138.317 26.8ZM136.877 29.11L136.155 28.4179C135.637 28.9589 135.008 29.3855 134.256 29.6955L134.637 30.62L135.018 31.5445C136.013 31.1345 136.877 30.5545 137.599 29.8021L136.877 29.11ZM134.637 30.62L134.26 29.694C133.527 29.9927 132.697 30.15 131.757 30.15V31.15V32.15C132.924 32.15 134.014 31.954 135.015 31.546L134.637 30.62ZM131.757 31.15V30.15C130.817 30.15 129.987 29.9927 129.255 29.694L128.877 30.62L128.5 31.546C129.5 31.954 130.59 32.15 131.757 32.15V31.15ZM128.877 30.62L129.261 29.6965C128.515 29.3869 127.889 28.9602 127.369 28.4179L126.647 29.11L125.925 29.8021C126.645 30.5531 127.505 31.1331 128.493 31.5435L128.877 30.62ZM126.647 29.11L127.369 28.4179C126.848 27.8744 126.437 27.2209 126.142 26.4443L125.207 26.8L124.272 27.1557C124.657 28.1658 125.206 29.0523 125.925 29.8021L126.647 29.11ZM125.207 26.8L126.143 26.4466C125.85 25.6718 125.697 24.8065 125.697 23.84H124.697H123.697C123.697 25.0202 123.884 26.1282 124.272 27.1534L125.207 26.8ZM124.697 23.84H125.697C125.697 22.8734 125.85 22.0123 126.142 21.2457L125.207 20.89L124.272 20.5343C123.884 21.5543 123.697 22.66 123.697 23.84H124.697ZM125.207 20.89L126.143 21.2434C126.438 20.4601 126.849 19.8044 127.369 19.2621L126.647 18.57L125.925 17.8779C125.205 18.629 124.656 19.5199 124.272 20.5366L125.207 20.89ZM126.647 18.57L127.372 19.2584C127.892 18.7107 128.518 18.2822 129.261 17.9735L128.877 17.05L128.493 16.1265C127.503 16.5378 126.642 17.1226 125.922 17.8816L126.647 18.57ZM128.877 17.05L129.261 17.9735C129.992 17.6698 130.819 17.51 131.757 17.51V16.51V15.51C130.588 15.51 129.496 15.7102 128.493 16.1265L128.877 17.05ZM131.757 16.51V17.51C132.695 17.51 133.522 17.6698 134.253 17.9735L134.637 17.05L135.021 16.1265C134.018 15.7102 132.926 15.51 131.757 15.51V16.51ZM134.637 17.05L134.256 17.9745C135.006 18.2836 135.633 18.7121 136.152 19.2584L136.877 18.57L137.602 17.8816C136.881 17.1213 136.015 16.5364 135.018 16.1255L134.637 17.05ZM136.877 18.57L136.155 19.2621C136.675 19.8044 137.086 20.4601 137.382 21.2434L138.317 20.89L139.253 20.5366C138.868 19.5199 138.319 18.629 137.599 17.8779L136.877 18.57ZM138.317 20.89L137.382 21.2457C137.674 22.0123 137.827 22.8734 137.827 23.84H138.827H139.827C139.827 22.66 139.64 21.5543 139.252 20.5343L138.317 20.89ZM136.837 23.84H137.837C137.837 22.87 137.705 21.9677 137.423 21.1457L136.477 21.47L135.531 21.7943C135.729 22.3723 135.837 23.05 135.837 23.84H136.837ZM136.477 21.47L137.423 21.1457C137.144 20.3331 136.739 19.6187 136.194 19.0243L135.457 19.7L134.72 20.3757C135.055 20.7413 135.33 21.2069 135.531 21.7943L136.477 21.47ZM135.457 19.7L136.199 19.0294C135.656 18.4291 134.999 17.9711 134.24 17.6563L133.857 18.58L133.474 19.5037C133.969 19.7089 134.378 19.9976 134.715 20.3706L135.457 19.7ZM133.857 18.58L134.24 17.6563C133.476 17.3394 132.644 17.19 131.757 17.19V18.19V19.19C132.417 19.19 132.984 19.3006 133.474 19.5037L133.857 18.58ZM131.757 18.19V17.19C130.876 17.19 130.047 17.3398 129.284 17.6563L129.667 18.58L130.05 19.5037C130.541 19.3002 131.105 19.19 131.757 19.19V18.19ZM129.667 18.58L129.284 17.6563C128.526 17.9706 127.868 18.427 127.32 19.0238L128.057 19.7L128.794 20.3762C129.139 19.9997 129.554 19.7094 130.05 19.5037L129.667 18.58ZM128.057 19.7L127.32 19.0243C126.775 19.6187 126.37 20.3331 126.091 21.1457L127.037 21.47L127.983 21.7943C128.184 21.2069 128.459 20.7413 128.794 20.3757L128.057 19.7ZM127.037 21.47L126.091 21.1457C125.809 21.9677 125.677 22.87 125.677 23.84H126.677H127.677C127.677 23.05 127.785 22.3723 127.983 21.7943L127.037 21.47ZM126.677 23.84H125.677C125.677 24.81 125.809 25.7123 126.091 26.5343L127.037 26.21L127.983 25.8857C127.785 25.3077 127.677 24.63 127.677 23.84H126.677ZM127.037 26.21L126.092 26.5371C126.371 27.3424 126.775 28.0531 127.315 28.6506L128.057 27.98L128.799 27.3094C128.459 26.9335 128.183 26.4643 127.982 25.8829L127.037 26.21ZM128.057 27.98L127.325 28.6612C127.873 29.2498 128.53 29.7007 129.284 30.0137L129.667 29.09L130.05 28.1663C129.551 27.9593 129.135 27.6702 128.789 27.2988L128.057 27.98ZM129.667 29.09L129.292 30.0171C130.053 30.3246 130.879 30.47 131.757 30.47V29.47V28.47C131.102 28.47 130.534 28.3621 130.042 28.1629L129.667 29.09ZM131.757 29.47V30.47C132.64 30.47 133.47 30.325 134.232 30.0171L133.857 29.09L133.482 28.1629C132.991 28.3617 132.42 28.47 131.757 28.47V29.47ZM133.857 29.09L134.24 30.0137C134.996 29.7002 135.652 29.2477 136.194 28.6557L135.457 27.98L134.72 27.3043C134.383 27.6723 133.972 27.9598 133.474 28.1663L133.857 29.09ZM135.457 27.98L136.199 28.6506C136.739 28.0531 137.143 27.3424 137.422 26.5371L136.477 26.21L135.532 25.8829C135.331 26.4643 135.055 26.9335 134.715 27.3094L135.457 27.98ZM136.477 26.21L137.423 26.5343C137.705 25.7123 137.837 24.81 137.837 23.84H136.837H135.837C135.837 24.63 135.729 25.3077 135.531 25.8857L136.477 26.21ZM152.103 28.32L151.362 27.648L151.355 27.6556L152.103 28.32ZM152.843 27.03L151.898 26.7024L151.894 26.7138L152.843 27.03ZM153.103 16.67V15.67H152.103V16.67H153.103ZM155.033 16.67H156.033V15.67H155.033V16.67ZM154.633 27.68L153.697 27.3269L153.694 27.3347L154.633 27.68ZM153.503 29.52L152.777 28.8317L152.777 28.832L153.503 29.52ZM145.153 29.52L144.427 30.2083L144.432 30.2129L145.153 29.52ZM144.013 27.68L143.074 28.0253L143.077 28.0331L144.013 27.68ZM143.623 16.67V15.67H142.623V16.67H143.623ZM145.553 16.67H146.553V15.67H145.553V16.67ZM145.803 27.02L144.854 27.3363L144.858 27.3475L145.803 27.02ZM146.543 28.31L145.795 28.9744L145.802 28.982L146.543 28.31ZM147.733 29.16L147.328 30.0743L147.336 30.0778L147.343 30.0811L147.733 29.16ZM149.333 29.46V30.46C150.039 30.46 150.706 30.3407 151.317 30.0791L150.923 29.16L150.529 28.2409C150.206 28.3793 149.813 28.46 149.333 28.46V29.46ZM150.923 29.16L151.317 30.0791C151.911 29.8244 152.427 29.4602 152.85 28.9844L152.103 28.32L151.355 27.6556C151.138 27.8998 150.868 28.0956 150.529 28.2409L150.923 29.16ZM152.103 28.32L152.843 28.992C153.271 28.5207 153.584 27.9668 153.791 27.3462L152.843 27.03L151.894 26.7138C151.767 27.0932 151.588 27.3993 151.362 27.648L152.103 28.32ZM152.843 27.03L153.787 27.3575C154.002 26.7391 154.103 26.0768 154.103 25.38H153.103H152.103C152.103 25.8832 152.03 26.3209 151.898 26.7025L152.843 27.03ZM153.103 25.38H154.103V16.67H153.103H152.103V25.38H153.103ZM153.103 16.67V17.67H155.033V16.67V15.67H153.103V16.67ZM155.033 16.67H154.033V25.38H155.033H156.033V16.67H155.033ZM155.033 25.38H154.033C154.033 26.0975 153.917 26.7433 153.697 27.3269L154.633 27.68L155.568 28.0331C155.881 27.2034 156.033 26.3159 156.033 25.38H155.033ZM154.633 27.68L153.694 27.3347C153.479 27.9203 153.172 28.4153 152.777 28.8317L153.503 29.52L154.228 30.2083C154.82 29.5847 155.267 28.853 155.571 28.0253L154.633 27.68ZM153.503 29.52L152.777 28.832C152.394 29.2356 151.917 29.5623 151.329 29.8064L151.713 30.73L152.096 31.6536C152.921 31.311 153.638 30.8311 154.228 30.208L153.503 29.52ZM151.713 30.73L151.329 29.8064C150.761 30.0423 150.101 30.17 149.333 30.17V31.17V32.17C150.325 32.17 151.251 32.0044 152.096 31.6536L151.713 30.73ZM149.333 31.17V30.17C148.565 30.17 147.904 30.0423 147.336 29.8064L146.953 30.73L146.569 31.6536C147.414 32.0044 148.341 32.17 149.333 32.17V31.17ZM146.953 30.73L147.336 29.8064C146.747 29.5619 146.265 29.2338 145.874 28.8271L145.153 29.52L144.432 30.2129C145.027 30.8328 145.745 31.3114 146.569 31.6536L146.953 30.73ZM145.153 29.52L145.878 28.8317C145.481 28.4135 145.17 27.9158 144.948 27.3269L144.013 27.68L143.077 28.0331C143.388 28.8575 143.837 29.5865 144.427 30.2083L145.153 29.52ZM144.013 27.68L144.951 27.3347C144.736 26.7489 144.623 26.1004 144.623 25.38H143.623H142.623C142.623 26.313 142.77 27.1977 143.074 28.0253L144.013 27.68ZM143.623 25.38H144.623V16.67H143.623H142.623V25.38H143.623ZM143.623 16.67V17.67H145.553V16.67V15.67H143.623V16.67ZM145.553 16.67H144.553V25.37H145.553H146.553V16.67H145.553ZM145.553 25.37H144.553C144.553 26.0628 144.649 26.7212 144.854 27.3362L145.803 27.02L146.751 26.7038C146.623 26.3188 146.553 25.8772 146.553 25.37H145.553ZM145.803 27.02L144.858 27.3475C145.07 27.9594 145.38 28.5069 145.795 28.9744L146.543 28.31L147.29 27.6456C147.066 27.3931 146.882 27.0806 146.747 26.6925L145.803 27.02ZM146.543 28.31L145.802 28.982C146.227 29.4504 146.74 29.8141 147.328 30.0743L147.733 29.16L148.138 28.2457C147.792 28.0926 147.511 27.8896 147.283 27.638L146.543 28.31ZM147.733 29.16L147.343 30.0811C147.958 30.3406 148.626 30.46 149.333 30.46V29.46V28.46C148.853 28.46 148.454 28.3794 148.122 28.2389L147.733 29.16ZM171.18 29.03L170.469 28.3267L170.469 28.3267L171.18 29.03ZM168.94 30.49L169.305 31.4209L169.309 31.4195L168.94 30.49ZM160.71 31H159.71V32H160.71V31ZM160.71 16.67V15.67H159.71V16.67H160.71ZM168.94 17.19L168.568 18.1185L168.577 18.1219L168.94 17.19ZM171.18 18.65L170.465 19.3496L170.469 19.3533L171.18 18.65ZM172.62 20.91L173.552 20.5496L173.552 20.5496L172.62 20.91ZM168.16 18.62L167.785 19.5471L167.785 19.5471L168.16 18.62ZM162.65 18.24V17.24H161.65V18.24H162.65ZM162.65 29.43H161.65V30.43H162.65V29.43ZM168.16 29.05L167.785 28.1229L167.785 28.1229L168.16 29.05ZM169.76 27.96L170.492 28.6409L170.497 28.6357L169.76 27.96ZM170.78 26.2L171.725 26.5271L171.725 26.5271L170.78 26.2ZM173.13 23.84H172.13C172.13 24.8069 171.977 25.6593 171.687 26.4096L172.62 26.77L173.552 27.1304C173.943 26.1207 174.13 25.0198 174.13 23.84H173.13ZM172.62 26.77L171.687 26.4096C171.393 27.1704 170.985 27.8046 170.469 28.3267L171.18 29.03L171.891 29.7333C172.614 29.0021 173.166 28.1296 173.552 27.1304L172.62 26.77ZM171.18 29.03L170.469 28.3267C169.952 28.8488 169.324 29.2614 168.571 29.5605L168.94 30.49L169.309 31.4195C170.302 31.0252 171.167 30.4645 171.891 29.7333L171.18 29.03ZM168.94 30.49L168.574 29.5591C167.838 29.8478 167.004 30 166.06 30V31V32C167.222 32 168.308 31.8122 169.305 31.4209L168.94 30.49ZM166.06 31V30H160.71V31V32H166.06V31ZM160.71 31H161.71V16.67H160.71H159.71V31H160.71ZM160.71 16.67V17.67H166.06V16.67V15.67H160.71V16.67ZM166.06 16.67V17.67C167.002 17.67 167.834 17.8247 168.568 18.1185L168.94 17.19L169.311 16.2615C168.312 15.8619 167.224 15.67 166.06 15.67V16.67ZM168.94 17.19L168.577 18.1219C169.326 18.4133 169.95 18.8236 170.465 19.3495L171.18 18.65L171.894 17.9505C171.169 17.2098 170.3 16.6467 169.302 16.2581L168.94 17.19ZM171.18 18.65L170.469 19.3533C170.985 19.8754 171.393 20.5096 171.687 21.2704L172.62 20.91L173.552 20.5496C173.166 19.5504 172.614 18.6779 171.891 17.9467L171.18 18.65ZM172.62 20.91L171.687 21.2704C171.977 22.0207 172.13 22.8731 172.13 23.84H173.13H174.13C174.13 22.6602 173.943 21.5593 173.552 20.5496L172.62 20.91ZM171.14 23.84H172.14C172.14 22.8702 172.008 21.97 171.725 21.1529L170.78 21.48L169.835 21.8071C170.032 22.3766 170.14 23.0498 170.14 23.84H171.14ZM170.78 21.48L171.725 21.1529C171.446 20.3467 171.04 19.6371 170.497 19.0443L169.76 19.72L169.023 20.3957C169.359 20.7629 169.634 21.2266 169.835 21.8071L170.78 21.48ZM169.76 19.72L170.497 19.0443C169.952 18.4503 169.294 17.9998 168.534 17.6929L168.16 18.62L167.785 19.5471C168.279 19.7468 168.687 20.0297 169.023 20.3957L169.76 19.72ZM168.16 18.62L168.534 17.6929C167.773 17.385 166.943 17.24 166.06 17.24V18.24V19.24C166.723 19.24 167.293 19.3483 167.785 19.5471L168.16 18.62ZM166.06 18.24V17.24H162.65V18.24V19.24H166.06V18.24ZM162.65 18.24H161.65V29.43H162.65H163.65V18.24H162.65ZM162.65 29.43V30.43H166.06V29.43V28.43H162.65V29.43ZM166.06 29.43V30.43C166.943 30.43 167.773 30.285 168.534 29.9771L168.16 29.05L167.785 28.1229C167.293 28.3217 166.723 28.43 166.06 28.43V29.43ZM168.16 29.05L168.534 29.9771C169.291 29.6715 169.948 29.2264 170.492 28.6408L169.76 27.96L169.027 27.2792C168.692 27.6403 168.282 27.9219 167.785 28.1229L168.16 29.05ZM169.76 27.96L170.497 28.6357C171.04 28.0429 171.446 27.3333 171.725 26.5271L170.78 26.2L169.835 25.8729C169.634 26.4534 169.359 26.9171 169.023 27.2843L169.76 27.96ZM170.78 26.2L171.725 26.5271C172.008 25.71 172.14 24.8098 172.14 23.84H171.14H170.14C170.14 24.6302 170.032 25.3034 169.835 25.8729L170.78 26.2Z" fill="white" mask="url(#path-4-outside-2_102_951)"/>
</g>
<defs>
<clipPath id="clip0_102_951">
<rect width="126" height="24" fill="white" transform="translate(49 11)"/>
</clipPath>
</defs>
</svg>
